<svg width="50" height="50" viewBox="0 0 50 50" fill="none" xmlns="http://www.w3.org/2000/svg">
  <path d="M23.8339 27.5214C27.5273 27.5214 30.5214 24.5272 30.5214 20.8338C30.5214 17.1404 27.5273 14.1462 23.8339 14.1462C20.1404 14.1462 17.1463 17.1404 17.1463 20.8338C17.1463 24.5272 20.1404 27.5214 23.8339 27.5214Z" stroke="#FF8731" stroke-width="4" stroke-linecap="round" stroke-linejoin="round" />
  <path d="M23.8335 3C19.1038 3 14.5677 4.87888 11.2233 8.22331C7.87888 11.5677 6 16.1038 6 20.8335C6 25.0511 6.89613 27.8109 9.34378 30.8648L23.8335 47.5837L38.3232 30.8648C40.7709 27.8109 41.667 25.0511 41.667 20.8335C41.667 16.1038 39.7881 11.5677 36.4437 8.22331C33.0993 4.87888 28.5632 3 23.8335 3Z" stroke="#FF8731" stroke-width="4" stroke-linecap="round" stroke-linejoin="round" />
</svg>