<svg width="50" height="50" viewBox="0 0 50 50" fill="none" xmlns="http://www.w3.org/2000/svg">
  <path d="M8.33329 41.6667C7.18746 41.6667 6.2069 41.2591 5.39163 40.4438C4.57635 39.6285 4.16801 38.6473 4.16663 37.5V12.5C4.16663 11.3542 4.57496 10.3737 5.39163 9.55837C6.20829 8.7431 7.18885 8.33476 8.33329 8.33337H41.6666C42.8125 8.33337 43.7937 8.74171 44.6104 9.55837C45.427 10.375 45.8347 11.3556 45.8333 12.5V37.5C45.8333 38.6459 45.4257 39.6271 44.6104 40.4438C43.7951 41.2605 42.8139 41.6681 41.6666 41.6667H8.33329ZM25 27.0834L8.33329 16.6667V37.5H41.6666V16.6667L25 27.0834ZM25 22.9167L41.6666 12.5H8.33329L25 22.9167ZM8.33329 16.6667V12.5V37.5V16.6667Z" fill="#FF8731" />
</svg>