<svg width="50" height="50" viewBox="0 0 50 50" fill="none" xmlns="http://www.w3.org/2000/svg">
  <g clip-path="url(#clip0_1_298)">
    <path d="M11.4188 4.14994C11.2343 3.91264 11.0014 3.7173 10.7356 3.5769C10.4699 3.4365 10.1773 3.35426 9.87725 3.33564C9.57725 3.31702 9.27672 3.36244 8.99562 3.4689C8.71452 3.57535 8.45929 3.7404 8.24688 3.95307L5.01563 7.18745C3.50626 8.69995 2.95001 10.8406 3.60938 12.7187C6.34916 20.4909 10.8005 27.5481 16.6344 33.3687C22.455 39.2026 29.5122 43.6539 37.2844 46.3937C39.1625 47.0531 41.3031 46.4968 42.8156 44.9874L46.0469 41.7562C46.2596 41.5438 46.4246 41.2886 46.5311 41.0075C46.6375 40.7264 46.6829 40.4258 46.6643 40.1258C46.6457 39.8258 46.5634 39.5332 46.4231 39.2674C46.2827 39.0017 46.0873 38.7688 45.85 38.5843L38.6406 32.9781C38.3869 32.7818 38.092 32.6456 37.7781 32.5796C37.4642 32.5136 37.1394 32.5194 36.8281 32.5968L29.9844 34.3062C29.0708 34.533 28.1142 34.5201 27.207 34.2688C26.2999 34.0175 25.4729 33.5363 24.8063 32.8718L17.1313 25.1937C16.4662 24.5273 15.9844 23.7005 15.7326 22.7934C15.4808 21.8862 15.4674 20.9294 15.6938 20.0156L17.4063 13.1718C17.4836 12.8605 17.4895 12.5357 17.4235 12.2218C17.3575 11.9079 17.2212 11.6131 17.025 11.3593L11.4188 4.14994ZM5.88751 1.59682C6.43437 1.04979 7.09134 0.625353 7.81482 0.351699C8.53829 0.0780456 9.3117 -0.0385648 10.0837 0.00961105C10.8557 0.0577869 11.6086 0.269647 12.2924 0.631123C12.9763 0.992598 13.5754 1.49542 14.05 2.1062L19.6563 9.31244C20.6844 10.6343 21.0469 12.3562 20.6406 13.9812L18.9313 20.8249C18.8435 21.1794 18.8486 21.5506 18.946 21.9025C19.0434 22.2545 19.2299 22.5754 19.4875 22.8343L27.1656 30.5124C27.4248 30.7705 27.7463 30.9573 28.0989 31.0548C28.4514 31.1522 28.8232 31.157 29.1781 31.0687L36.0188 29.3593C36.8208 29.16 37.6575 29.145 38.4661 29.3155C39.2748 29.486 40.0343 29.8375 40.6875 30.3437L47.8938 35.9499C50.4844 37.9656 50.7219 41.7937 48.4031 44.1093L45.1719 47.3406C42.8594 49.6531 39.4031 50.6687 36.1813 49.5343C27.9334 46.6361 20.4454 41.9148 14.275 35.7218C8.08242 29.5523 3.36111 22.0655 0.462507 13.8187C-0.668743 10.5999 0.346882 7.14057 2.65938 4.82807L5.88751 1.59682Z" fill="#FF8731" />
  </g>
  <defs>
    <clipPath id="clip0_1_298">
      <rect width="50" height="50" fill="white" />
    </clipPath>
  </defs>
</svg>