<svg width="208" height="204" viewBox="0 0 208 204" fill="none" xmlns="http://www.w3.org/2000/svg">
  <g clip-path="url(#clip0_1_364)">
    <path d="M135.289 83.7268L120.954 90.5868M120.954 90.5868L119.162 91.4443L103.035 99.1617M120.954 90.5868V102.592M120.954 90.5868L86.9083 73.4369M103.035 99.1617L70.7814 83.7268M103.035 99.1617V131.747M115.858 69.6021L123.025 73.2036C130.734 77.0761 134.59 79.0106 136.733 82.492C138.873 85.97 138.873 90.3021 138.873 98.9628V99.3641C138.873 108.021 138.873 112.353 136.733 115.831C134.59 119.313 130.734 121.251 123.025 125.123L115.858 128.721C109.565 131.88 106.418 133.462 103.035 133.462C99.6522 133.462 96.5056 131.884 90.2126 128.721L83.0451 125.12C75.3364 121.247 71.4803 119.313 69.3372 115.831C67.1977 112.353 67.1977 108.021 67.1977 99.3675V98.9662C67.1977 90.3055 67.1977 85.9734 69.3372 82.4954C71.4803 79.014 75.3364 77.0761 83.0451 73.207L90.2126 69.6056C96.5056 66.4431 99.6522 64.8619 103.035 64.8619C106.418 64.8619 109.565 66.4397 115.858 69.6021Z" stroke="white" stroke-width="5" stroke-linecap="round" />
    <path d="M171.065 149.797C174.767 149.797 177.768 146.925 177.768 143.383C177.768 139.84 174.767 136.968 171.065 136.968C167.364 136.968 164.363 139.84 164.363 143.383C164.363 146.925 167.364 149.797 171.065 149.797Z" stroke="white" stroke-width="5" />
    <path d="M175.007 122.325C174.187 122 173.146 122 171.063 122C168.981 122 167.94 122 167.12 122.325C166.578 122.54 166.085 122.855 165.67 123.252C165.255 123.65 164.925 124.122 164.701 124.641C164.495 125.118 164.413 125.676 164.381 126.486C164.367 127.072 164.197 127.644 163.889 128.15C163.58 128.656 163.142 129.079 162.616 129.379C162.082 129.665 161.481 129.817 160.868 129.82C160.256 129.823 159.653 129.677 159.116 129.396C158.365 129.016 157.822 128.806 157.284 128.738C156.109 128.59 154.921 128.894 153.982 129.584C153.28 130.104 152.757 130.966 151.716 132.691C150.675 134.417 150.152 135.278 150.038 136.123C149.962 136.68 150 137.246 150.152 137.789C150.304 138.331 150.566 138.84 150.923 139.285C151.254 139.696 151.716 140.04 152.433 140.472C153.49 141.107 154.169 142.189 154.169 143.382C154.169 144.575 153.49 145.657 152.433 146.29C151.716 146.724 151.252 147.069 150.923 147.479C150.566 147.925 150.304 148.434 150.152 148.976C150 149.519 149.962 150.085 150.038 150.642C150.155 151.484 150.675 152.348 151.714 154.074C152.757 155.799 153.278 156.661 153.982 157.18C154.447 157.522 154.979 157.773 155.546 157.918C156.113 158.064 156.704 158.101 157.286 158.027C157.822 157.959 158.365 157.749 159.116 157.369C159.653 157.088 160.256 156.942 160.868 156.945C161.481 156.948 162.082 157.1 162.616 157.386C163.695 157.984 164.337 159.086 164.381 160.279C164.413 161.091 164.493 161.647 164.701 162.124C164.925 162.643 165.255 163.115 165.67 163.512C166.085 163.91 166.578 164.225 167.12 164.44C167.94 164.765 168.981 164.765 171.063 164.765C173.146 164.765 174.187 164.765 175.007 164.44C175.549 164.225 176.042 163.91 176.457 163.512C176.872 163.115 177.202 162.643 177.426 162.124C177.632 161.647 177.714 161.091 177.746 160.279C177.79 159.086 178.432 157.982 179.511 157.386C180.045 157.1 180.646 156.948 181.259 156.945C181.871 156.942 182.474 157.088 183.011 157.369C183.762 157.749 184.305 157.959 184.841 158.027C185.423 158.101 186.014 158.064 186.581 157.918C187.148 157.773 187.68 157.522 188.145 157.18C188.849 156.663 189.37 155.799 190.411 154.074C191.452 152.348 191.975 151.486 192.089 150.642C192.165 150.085 192.127 149.519 191.975 148.976C191.823 148.434 191.561 147.925 191.204 147.479C190.873 147.069 190.411 146.724 189.694 146.292C189.171 145.988 188.737 145.561 188.434 145.052C188.13 144.543 187.966 143.968 187.958 143.382C187.958 142.189 188.637 141.107 189.694 140.474C190.411 140.04 190.875 139.696 191.204 139.285C191.561 138.84 191.823 138.331 191.975 137.789C192.127 137.246 192.165 136.68 192.089 136.123C191.972 135.281 191.452 134.417 190.413 132.691C189.37 130.966 188.849 130.104 188.145 129.584C187.68 129.242 187.148 128.992 186.581 128.846C186.014 128.701 185.423 128.664 184.841 128.738C184.305 128.806 183.762 129.016 183.009 129.396C182.472 129.677 181.869 129.822 181.258 129.819C180.646 129.816 180.045 129.665 179.511 129.379C178.985 129.079 178.547 128.656 178.238 128.15C177.93 127.644 177.76 127.072 177.746 126.486C177.714 125.673 177.634 125.118 177.426 124.641C177.202 124.122 176.872 123.65 176.457 123.252C176.042 122.855 175.549 122.54 175.007 122.325Z" stroke="white" stroke-width="5" />
    <path d="M60.4394 43.1732C72.1963 34.367 86.3654 29.0752 101.155 27.9669C115.944 26.8586 130.689 29.9836 143.525 36.9468C156.362 43.91 166.712 54.3985 173.269 67.0858C179.825 79.7732 182.292 94.0896 180.358 108.224L178.678 114.874M178.678 114.874C180.662 114.438 202.532 95.294 203.767 93.7322M178.678 114.874L160.181 100.088M12.9574 101.942C14.3398 100.195 32.9823 85.5678 35.2341 85.2561M35.2341 85.2561L51.7 99.1614M35.2341 85.2561L33.2969 91.7453C31.3631 105.88 32.301 119.668 38.8573 132.356C45.4135 145.043 55.7643 155.532 68.6006 162.495C81.4369 169.458 96.1821 172.583 110.971 171.475C125.761 170.366 131.958 168.224 143.715 159.418" stroke="white" stroke-width="5" stroke-linecap="round" stroke-linejoin="round" />
    <path d="M15.634 59.4483C14.6217 57.1164 14.0992 54.5945 14.1 52.0446C14.1 42.2268 21.666 34.2745 31 34.2745C40.334 34.2745 47.9 42.2295 47.9 52.0446C47.9008 54.5945 47.3783 57.1164 46.366 59.4483M31 25V27.6499M57 51.4987H54.4M7.6 51.4987H5M49.382 32.7615L47.5438 34.6349M14.4562 34.6376L12.618 32.7641M37.5442 70.8613C40.1702 69.9948 41.2258 67.5437 41.5222 65.0793C41.6106 64.3426 41.0152 63.7305 40.2872 63.7305H21.8402C21.6624 63.7276 21.4861 63.7632 21.3228 63.835C21.1595 63.9068 21.0131 64.013 20.8931 64.1468C20.7732 64.2806 20.6825 64.4388 20.627 64.6109C20.5716 64.7831 20.5526 64.9653 20.5714 65.1455C20.8626 67.6046 21.5958 69.4012 24.3778 70.8586C24.7678 75.5675 25.9378 78.0928 31.0182 77.9974C35.7684 78.0557 37.2296 76.0153 37.5442 70.8613Z" stroke="white" stroke-width="6" stroke-linecap="round" stroke-linejoin="round" />
  </g>
  <defs>
    <clipPath id="clip0_1_364">
      <rect width="207" height="204" fill="white" transform="translate(0.5)" />
    </clipPath>
  </defs>
</svg>