<svg width="172" height="160" viewBox="0 0 172 160" fill="none" xmlns="http://www.w3.org/2000/svg">
  <path d="M16 40.2609L143.75 40.3135" stroke="white" stroke-width="5" stroke-linecap="round" stroke-linejoin="round" />
  <path d="M34.1739 13H124.993C135.056 13 143.217 21.1111 143.217 31.1739V122.043C143.217 132.106 135.106 140.217 125.043 140.217H34.1739C24.1112 140.217 16.0392 132.113 16.0353 122.05L16 31.1739C15.9961 21.1112 24.1112 13 34.1739 13Z" stroke="white" stroke-width="5" stroke-linecap="round" stroke-linejoin="round" />
  <path d="M115.941 40.3134L115.961 13" stroke="white" stroke-width="5" stroke-linecap="round" stroke-linejoin="round" />
  <path d="M142.316 58H167.344V83.0285" stroke="white" stroke-width="5" stroke-linecap="round" stroke-linejoin="round" />
  <path d="M167.343 58L131.99 93.3528C131.405 93.926 130.619 94.2471 129.8 94.2471C128.981 94.2471 128.195 93.926 127.61 93.3528L113.219 78.9614C112.634 78.3882 111.847 78.0671 111.029 78.0671C110.21 78.0671 109.423 78.3882 108.839 78.9614L86 101.8" stroke="white" stroke-width="5" stroke-linecap="round" stroke-linejoin="round" />
  <path d="M116.946 99.973C116.946 108.983 113.367 117.624 106.996 123.996C100.624 130.367 91.9832 133.946 82.973 133.946C73.9628 133.946 65.3217 130.367 58.9505 123.996C52.5793 117.624 49 108.983 49 99.973C49 90.9628 52.5793 82.3217 58.9505 75.9505C65.3217 69.5793 73.9628 66 82.973 66C82.973 66 94.5 66 100 71M129.3 146.3L107.681 124.681" stroke="white" stroke-width="5" stroke-linecap="round" stroke-linejoin="round" />
</svg>