<svg width="174" height="166" viewBox="0 0 174 166" fill="none" xmlns="http://www.w3.org/2000/svg">
<path fill-rule="evenodd" clip-rule="evenodd" d="M169.088 79.5703C169.088 123.659 132.271 159.139 87.1817 159.139C42.0927 159.139 5.27539 123.659 5.27539 79.5703C5.27539 35.4814 42.0927 0.00169373 87.1817 0.00169373C132.271 0.00169373 169.088 35.4814 169.088 79.5703ZM87.1817 154.139C129.656 154.139 164.088 120.753 164.088 79.5703C164.088 38.3872 129.656 5.00169 87.1817 5.00169C44.7075 5.00169 10.2754 38.3872 10.2754 79.5703C10.2754 120.753 44.7075 154.139 87.1817 154.139ZM42.0064 91.3094H38.2812V121.137H41.686L41.8768 118.708C41.9129 118.754 41.9495 118.8 41.9864 118.845C42.694 119.713 43.5619 120.379 44.59 120.846C45.6314 121.299 46.8398 121.525 48.215 121.525C49.5635 121.525 50.7585 121.26 51.7999 120.729C52.8414 120.198 53.7226 119.454 54.4436 118.496C55.1646 117.538 55.712 116.412 56.0859 115.117C56.4597 113.809 56.6466 112.392 56.6466 110.864V110.456C56.6466 108.851 56.4597 107.395 56.0859 106.087C55.712 104.767 55.1646 103.634 54.4436 102.689C53.736 101.744 52.8547 101.019 51.7999 100.514C50.7452 99.9961 49.5368 99.7372 48.1749 99.7372C46.813 99.7372 45.6181 99.9702 44.59 100.436C43.5716 100.885 42.7104 101.544 42.0064 102.412V91.3094ZM42.0064 115.156V106.031C42.2939 105.459 42.6477 104.947 43.0679 104.495C43.5485 103.964 44.1293 103.543 44.8103 103.233C45.5046 102.922 46.319 102.767 47.2537 102.767C48.3085 102.767 49.1963 102.974 49.9173 103.388C50.6383 103.789 51.2191 104.346 51.6598 105.058C52.1004 105.757 52.4208 106.573 52.6211 107.505C52.8214 108.424 52.9215 109.408 52.9215 110.456V110.864C52.9215 111.913 52.8147 112.897 52.6011 113.816C52.3874 114.735 52.0536 115.544 51.5997 116.243C51.1591 116.942 50.5783 117.493 49.8573 117.894C49.1496 118.282 48.2951 118.476 47.2937 118.476C46.0787 118.476 45.0573 118.211 44.2295 117.68C43.415 117.149 42.7608 116.47 42.2668 115.641C42.1751 115.481 42.0883 115.319 42.0064 115.156ZM65.0383 106.199V121.137H61.3331V100.126H64.9381L65.0113 102.537L65.0383 102.495C65.5857 101.627 66.28 100.954 67.1211 100.475C67.9757 99.9832 68.9904 99.7372 70.1653 99.7372C70.4324 99.7372 70.7395 99.7696 71.0866 99.8343C71.4338 99.8861 71.6741 99.9443 71.8076 100.009L71.7876 103.349C71.4805 103.284 71.1868 103.246 70.9064 103.233C70.6393 103.207 70.3322 103.194 69.9851 103.194C69.1306 103.194 68.3762 103.323 67.722 103.582C67.0677 103.841 66.5136 104.204 66.0597 104.67C65.6389 105.102 65.2984 105.611 65.0383 106.199ZM86.7283 119.447C86.9279 119.272 87.116 119.095 87.2925 118.916C87.3139 119.102 87.3395 119.292 87.3691 119.486C87.476 120.172 87.6228 120.723 87.8097 121.137H91.6751V120.826C91.4214 120.257 91.2278 119.577 91.0943 118.787C90.9741 117.997 90.914 117.253 90.914 116.554V106.767C90.914 105.2 90.5669 103.899 89.8726 102.864C89.1917 101.815 88.2437 101.032 87.0287 100.514C85.827 99.9961 84.4384 99.7372 82.8629 99.7372C81.5544 99.7372 80.3661 99.9184 79.298 100.281C78.2432 100.63 77.3353 101.109 76.5742 101.718C75.8265 102.313 75.2524 102.98 74.8518 103.718C74.4513 104.456 74.251 105.2 74.251 105.951H77.9561C77.9561 105.369 78.1497 104.825 78.5369 104.32C78.9375 103.815 79.4849 103.407 80.1792 103.097C80.8868 102.786 81.708 102.631 82.6426 102.631C83.644 102.631 84.4852 102.799 85.1661 103.135C85.847 103.472 86.3544 103.951 86.6882 104.572C87.0353 105.181 87.2089 105.899 87.2089 106.728V108.398H83.5438C82.0618 108.398 80.7199 108.547 79.5183 108.845C78.3166 109.142 77.2885 109.583 76.434 110.165C75.5795 110.735 74.9253 111.453 74.4713 112.321C74.0173 113.175 73.7904 114.165 73.7904 115.292C73.7904 116.457 74.0908 117.512 74.6916 118.457C75.3058 119.389 76.1603 120.134 77.2551 120.69C78.3633 121.247 79.6518 121.525 81.1205 121.525C82.2955 121.525 83.3503 121.331 84.2849 120.943C85.2328 120.541 86.0473 120.043 86.7283 119.447ZM86.7283 115.971C86.9216 115.721 87.0818 115.474 87.2089 115.23V110.922H84.1447C83.0899 110.922 82.1486 111.007 81.3208 111.175C80.493 111.33 79.7987 111.57 79.2379 111.893C78.6771 112.217 78.2499 112.625 77.9561 113.117C77.6624 113.596 77.5155 114.159 77.5155 114.806C77.5155 115.467 77.6691 116.068 77.9762 116.612C78.2832 117.156 78.7439 117.59 79.3581 117.913C79.9856 118.224 80.7533 118.379 81.6612 118.379C82.7962 118.379 83.7975 118.146 84.6654 117.68C85.5333 117.214 86.2209 116.645 86.7283 115.971ZM100.447 106.142V121.137H96.7421V100.126H100.247L100.364 102.74C100.404 102.69 100.446 102.641 100.487 102.592C101.262 101.686 102.183 100.986 103.251 100.495C104.333 99.9896 105.528 99.7372 106.836 99.7372C107.904 99.7372 108.866 99.8796 109.72 100.164C110.575 100.436 111.302 100.876 111.903 101.485C112.517 102.093 112.985 102.883 113.305 103.854C113.625 104.812 113.786 105.984 113.786 107.369V121.137H110.061V107.33C110.061 106.23 109.894 105.349 109.56 104.689C109.226 104.016 108.739 103.53 108.098 103.233C107.457 102.922 106.669 102.767 105.735 102.767C104.813 102.767 103.972 102.954 103.211 103.33C102.463 103.705 101.816 104.223 101.268 104.883C100.956 105.27 100.682 105.689 100.447 106.142ZM130.629 120.846C131.648 120.383 132.51 119.724 133.214 118.868L133.393 121.137H136.798V91.3094H133.072V102.244C132.395 101.458 131.581 100.856 130.629 100.436C129.614 99.9702 128.426 99.7372 127.064 99.7372C125.769 99.7372 124.594 99.9961 123.539 100.514C122.498 101.019 121.596 101.744 120.835 102.689C120.088 103.634 119.507 104.767 119.093 106.087C118.692 107.395 118.492 108.851 118.492 110.456V110.864C118.492 112.392 118.692 113.809 119.093 115.117C119.507 116.412 120.088 117.538 120.835 118.496C121.596 119.454 122.498 120.198 123.539 120.729C124.594 121.26 125.756 121.525 127.024 121.525C128.399 121.525 129.601 121.299 130.629 120.846ZM132.151 104.495C132.51 104.882 132.817 105.312 133.072 105.786V115.396C133.014 115.505 132.954 115.612 132.892 115.719C132.411 116.547 131.771 117.214 130.969 117.719C130.182 118.224 129.174 118.476 127.945 118.476C126.944 118.476 126.083 118.282 125.362 117.894C124.641 117.493 124.047 116.942 123.579 116.243C123.112 115.544 122.765 114.735 122.538 113.816C122.324 112.897 122.217 111.913 122.217 110.864V110.456C122.217 109.408 122.324 108.424 122.538 107.505C122.765 106.573 123.112 105.757 123.579 105.058C124.047 104.346 124.641 103.789 125.362 103.388C126.096 102.974 126.971 102.767 127.985 102.767C128.92 102.767 129.728 102.922 130.409 103.233C131.103 103.543 131.684 103.964 132.151 104.495ZM90.3783 23.5829C88.9875 21.5602 86.0009 21.5602 84.6101 23.5829L69.844 45.0588L52.7125 31.7702C50.1436 29.7776 46.4827 32.0587 47.1395 35.2428L54.9731 73.2203C55.3086 74.8465 56.7405 76.0132 58.4009 76.0132H116.587C118.248 76.0132 119.68 74.8465 120.015 73.2203L127.849 35.2428C128.506 32.0587 124.845 29.7775 122.276 31.7702L105.144 45.0588L90.3783 23.5829ZM73.064 49.2007L87.4942 28.2134L101.924 49.2007C103.064 50.8586 105.364 51.2164 106.954 49.9833L122.132 38.21L115.365 71.0132H59.6231L52.8568 38.21L68.0348 49.9833C69.6245 51.2164 71.9241 50.8586 73.064 49.2007Z" fill="white"/>
</svg>
